<?xml version="1.0" encoding="UTF-8" standalone="no"?>
<!-- Created with Inkscape (http://www.inkscape.org/) -->

<svg
   xmlns:dc="http://purl.org/dc/elements/1.1/"
   xmlns:cc="http://creativecommons.org/ns#"
   xmlns:rdf="http://www.w3.org/1999/02/22-rdf-syntax-ns#"
   xmlns:svg="http://www.w3.org/2000/svg"
   xmlns="http://www.w3.org/2000/svg"
   xmlns:sodipodi="http://sodipodi.sourceforge.net/DTD/sodipodi-0.dtd"
   xmlns:inkscape="http://www.inkscape.org/namespaces/inkscape"
   width="40mm"
   height="40mm"
   viewBox="0 0 141.73228 141.73229"
   id="svg2"
   version="1.1"
   inkscape:version="0.91 r13725"
   sodipodi:docname="perfil-obijuan2.svg">
  <defs
     id="defs4" />
  <sodipodi:namedview
     id="base"
     pagecolor="#ffffff"
     bordercolor="#666666"
     borderopacity="1.0"
     inkscape:pageopacity="0.0"
     inkscape:pageshadow="2"
     inkscape:zoom="1.4"
     inkscape:cx="105.44502"
     inkscape:cy="39.029812"
     inkscape:document-units="px"
     inkscape:current-layer="layer2"
     showgrid="false"
     inkscape:window-width="1215"
     inkscape:window-height="1000"
     inkscape:window-x="705"
     inkscape:window-y="24"
     inkscape:window-maximized="1"
     fit-margin-top="0"
     fit-margin-left="0"
     fit-margin-right="0"
     fit-margin-bottom="0" />
  <metadata
     id="metadata7">
    <rdf:RDF>
      <cc:Work
         rdf:about="">
        <dc:format>image/svg+xml</dc:format>
        <dc:type
           rdf:resource="http://purl.org/dc/dcmitype/StillImage" />
        <dc:title></dc:title>
      </cc:Work>
    </rdf:RDF>
  </metadata>
  <g
     inkscape:groupmode="layer"
     id="layer2"
     inkscape:label="Layer 2"
     style="display:inline"
     transform="translate(-156.54894,-142.66479)">
    <path
       style="opacity:1;fill:none;fill-opacity:1;stroke:#000000;stroke-width:0.99999994;stroke-linecap:round;stroke-linejoin:round;stroke-miterlimit:4;stroke-dasharray:none;stroke-dashoffset:0;stroke-opacity:1"
       d="m 219.4217,265.3809 -2.82022,-4.59714 -2.09502,-2.74213 -1.45039,-2.2582 c 0,0 -1.61156,-2.41959 -3.06194,-3.70996 -1.45041,-1.29042 -6.04332,-1.85497 -6.04332,-1.85497 0,0 -2.09502,0.16127 -4.19004,-1.77435 -2.095,-1.9356 -2.73963,-4.67777 -2.73963,-4.67777 l 0.57836,-2.59774 c 0,0 0.0286,-0.19958 -0.0854,-0.59878 -0.11396,-0.3992 -0.76919,-0.99803 -0.76919,-0.99803 0,0 -1.88024,-1.36868 -2.02267,-2.39521 -0.14245,-1.02653 0.25639,-2.08155 0.25639,-2.08155 0,0 -0.57617,-0.28099 -1.26108,-0.76489 -0.68492,-0.48387 -0.60434,-2.2179 -0.60434,-2.2179 l -0.84606,-4.91974 -1.61155,-0.28228 -1.93386,-0.40323 c 0,0 -1.97415,-0.88714 -2.37705,-2.29856 -0.40288,-1.41138 0.52376,-2.86314 0.52376,-2.86314 l 1.57127,-2.01625 3.66627,-3.75026 1.65184,-1.97599 1.28924,-1.53237 0.7252,-0.72583 -0.40288,-2.58085 0.92663,-0.20164 -0.24173,-1.37105 -0.16115,-1.37107 0.32231,-1.41142 0.48346,-2.09689 0.48347,-2.50021 0.24172,-2.82281 0.44319,-2.37922 1.69212,-3.87121 1.54424,-2.92022 -3.30466,-2.56629 -5.01397,-6.15912 1.81887,1.12063 -0.88634,-2.50016 2.65905,2.09693 -1.28925,-2.8228 1.77271,1.20974 -0.80577,-2.90344 1.28924,0.72587 -0.0807,-1.45169 1.77271,1.69365 -0.40289,-2.50016 0.96693,0.72581 0.24174,-1.29037 1.20867,-0.40327 1.28922,1.29041 -0.40287,-2.25826 1.85328,0.48392 -0.0806,-1.85496 1.04752,1.20978 0.48346,-1.77434 1.93386,2.01629 -0.0806,-2.66149 0.88635,0.80653 0.64461,-2.09693 0.96693,1.77427 0.48347,-1.69365 0.56405,0.80651 0.48346,-2.2582 1.28925,1.7743 0.40288,-1.20976 1.20867,2.25822 0.80577,-2.58086 0.56404,2.50022 0.88636,-1.53238 0.32231,1.20979 1.36982,0.24194 0.96692,-0.8065 1.61156,1.29037 0.40288,0.0807 0.88636,-1.93566 1.53097,1.69371 1.28924,0.56456 -0.32232,-3.30674 1.4504,1.5324 0.24173,-1.61302 1.61156,1.20979 c 0,0 0.0806,0.16126 0.56404,0.16126 0.48346,0 2.01444,-2.74212 2.01444,-2.74212 l 0.96692,1.93562 0.80578,-1.4517 1.53097,2.17756 1.61155,0 2.49791,-1.04846 -0.64462,2.0163 2.4979,0.16127 6.12389,-4.03255 -1.77271,3.87128 5.47929,-2.09694 -2.57849,2.09694 -0.64462,0.96778 4.67349,2.90344 3.54541,-1.77429 6.1239,0.96778 c 0,0 -6.92967,1.29043 -6.28505,1.45174 0.64462,0.16128 6.44621,0.96778 6.44621,0.96778 l -4.19004,0.16133 5.80158,2.58086 -3.5454,0.16126 5.96273,2.09693 -4.51234,0.48393 7.09082,4.35519 -4.83465,-1.77435 5.64043,5.64558 -2.25618,0.64523 3.70657,5.16165 -2.57848,-0.6452 3.54541,4.35514 -3.06194,-2.41952 2.41732,8.549 -1.28924,2.09693 -0.64462,-1.9356 -0.64462,3.87127 -2.09502,8.38769 -2.73963,7.74254 -4.02887,6.45208 -3.54542,5.32296 -2.25617,3.87128 -1.12809,3.38731 -0.64462,2.09694 -13.85934,8.06515 -9.83044,6.77466 z"
       id="path4167"
       inkscape:connector-curvature="0" />
    <circle
       style="opacity:1;fill:none;fill-opacity:1;stroke:#000000;stroke-width:2;stroke-linecap:round;stroke-linejoin:round;stroke-miterlimit:4;stroke-dasharray:none;stroke-dashoffset:0;stroke-opacity:1"
       id="path4134"
       cx="227.41508"
       cy="213.53093"
       r="69.866142" />
  </g>
</svg>
