<?xml version="1.0" encoding="UTF-8" standalone="no"?>
<!-- Created with Inkscape (http://www.inkscape.org/) -->

<svg
   xmlns:dc="http://purl.org/dc/elements/1.1/"
   xmlns:cc="http://creativecommons.org/ns#"
   xmlns:rdf="http://www.w3.org/1999/02/22-rdf-syntax-ns#"
   xmlns:svg="http://www.w3.org/2000/svg"
   xmlns="http://www.w3.org/2000/svg"
   xmlns:sodipodi="http://sodipodi.sourceforge.net/DTD/sodipodi-0.dtd"
   xmlns:inkscape="http://www.inkscape.org/namespaces/inkscape"
   width="40mm"
   height="40mm"
   viewBox="0 0 141.73228 141.73229"
   id="svg2"
   version="1.1"
   inkscape:version="0.91 r13725"
   sodipodi:docname="perfil-obijuan4.svg">
  <defs
     id="defs4" />
  <sodipodi:namedview
     id="base"
     pagecolor="#ffffff"
     bordercolor="#666666"
     borderopacity="1.0"
     inkscape:pageopacity="0.0"
     inkscape:pageshadow="2"
     inkscape:zoom="1.4"
     inkscape:cx="103.99265"
     inkscape:cy="21.148649"
     inkscape:document-units="px"
     inkscape:current-layer="layer2"
     showgrid="false"
     inkscape:window-width="1215"
     inkscape:window-height="1000"
     inkscape:window-x="705"
     inkscape:window-y="24"
     inkscape:window-maximized="1"
     fit-margin-top="0"
     fit-margin-left="0"
     fit-margin-right="0"
     fit-margin-bottom="0" />
  <metadata
     id="metadata7">
    <rdf:RDF>
      <cc:Work
         rdf:about="">
        <dc:format>image/svg+xml</dc:format>
        <dc:type
           rdf:resource="http://purl.org/dc/dcmitype/StillImage" />
        <dc:title></dc:title>
      </cc:Work>
    </rdf:RDF>
  </metadata>
  <g
     inkscape:groupmode="layer"
     id="layer2"
     inkscape:label="Layer 2"
     style="display:inline"
     transform="translate(-126.85709,-143.05856)">
    <path
       id="path3355"
       style="opacity:1;fill:#000000;fill-opacity:1;stroke:#000000;stroke-width:1;stroke-linecap:round;stroke-linejoin:round;stroke-miterlimit:4;stroke-dasharray:none;stroke-dashoffset:0;stroke-opacity:1"
       d="m 223.05458,240.93678 2.34504,-4.0235 3.68508,-5.53224 4.18757,-6.70576 2.84755,-8.04695 2.17755,-8.71747 0.67,-4.02347 0.67002,2.0117 1.34003,-2.17937 -2.51255,-8.88513 3.18256,2.51466 -3.68507,-4.52637 2.68005,0.67054 -3.85258,-5.36459 2.34505,-0.67061 -5.86261,-5.86753 5.0251,1.84412 -7.37014,-4.52643 4.69009,-0.50296 -6.19761,-2.17937 3.68506,-0.16761 -6.03011,-2.68232 4.35508,-0.16767 c 0,0 -6.03012,-0.83821 -6.70013,-1.00583 -0.67001,-0.16767 6.53262,-1.50882 6.53262,-1.50882 l -6.36511,-1.00583 -3.68508,1.84404 -4.85759,-3.01759 0.67002,-1.00582 2.68004,-2.17939 -5.6951,2.17939 1.84252,-4.0235 -6.3651,4.1911 -2.5963,-0.1676 0.67,-2.09558 -2.5963,1.08968 -1.67503,0 -1.59128,-2.26318 -0.8375,1.50877 -1.00502,-2.01171 c 0,0 -1.59129,2.84994 -2.09379,2.84994 -0.50252,0 -0.58627,-0.16762 -0.58627,-0.16762 l -1.67503,-1.25736 -0.25126,1.67644 -1.50753,-1.59262 0.33501,3.43672 -1.34003,-0.58675 -1.59128,-1.76028 -0.92126,2.01176 -0.41876,-0.0838 -1.67503,-1.34111 -1.00502,0.83822 -1.42378,-0.25147 -0.33501,-1.25736 -0.92126,1.59263 -0.58626,-2.59851 -0.83751,2.68231 -1.25628,-2.34699 -0.41876,1.25731 -1.34003,-1.84405 -0.5025,2.34699 -0.58626,-0.83823 -0.50252,1.76026 -1.00502,-1.84405 -0.67,2.17937 -0.92126,-0.83821 0.0837,2.76613 -2.01004,-2.09558 -0.5025,1.8441 -1.08877,-1.25736 0.0837,1.92791 -1.92628,-0.50293 0.41876,2.34704 -1.34003,-1.34116 -1.25628,0.41914 -0.25126,1.3411 -1.00501,-0.75435 0.41876,2.59845 -1.84253,-1.76024 0.0837,1.50877 -1.34002,-0.75441 0.83752,3.01759 -1.84253,-1.25729 1.34001,2.93379 -2.7638,-2.17937 0.92127,2.59845 -1.89053,-1.16469 5.21149,6.40127 2.38182,2.9546 1.2842,-0.32427 4.21203,-1.62874 4.4035,-1.82036 c 0,0 3.35048,-1.82037 5.16931,-0.19162 1.81883,1.62875 0.19145,3.73653 0.19145,3.73653 l -1.81883,2.87427 -2.20174,3.64073 -1.24447,3.92815 8.90271,7.18566 2.63494,8.90844 1.08303,7.45216 4.46753,-2.3034 2.16609,-1.62592 0.40614,-2.84537 3.92601,-2.03242 1.48919,-1.62593 0.40614,-2.57438 c 0,0 1.35379,-1.8969 4.73829,-2.1679 3.38449,-0.27098 7.40106,2.16802 7.11388,6.76684 -2.09554,6.6799 3.05051,5.44152 0.76582,12.1677 l -2.48893,6.32337 -0.95728,5.07786 2.77611,3.16169 4.11631,2.01199 2.29747,0.28742 z"
       inkscape:connector-curvature="0"
       sodipodi:nodetypes="ccccccccccccccccccccccccccccccccccccccccscccccccccccccccccccccccccccccccccccccccccccccccccccscccccccccccccscccccccc" />
    <circle
       style="opacity:1;fill:none;fill-opacity:1;stroke:#000000;stroke-width:1.99999988;stroke-linecap:round;stroke-linejoin:round;stroke-miterlimit:4;stroke-dasharray:none;stroke-dashoffset:0;stroke-opacity:1"
       id="path4136"
       cx="197.72324"
       cy="213.9247"
       r="69.866142" />
  </g>
  <g
     inkscape:groupmode="layer"
     id="layer3"
     inkscape:label="Layer 3"
     style="display:inline"
     transform="translate(-9.7142639,-42.493566)">
    <path
       id="path4167"
       style="display:inline;opacity:1;fill:#ffccaa;fill-opacity:1;stroke:#000000;stroke-width:1;stroke-linecap:round;stroke-linejoin:round;stroke-miterlimit:4;stroke-dasharray:none;stroke-dashoffset:0;stroke-opacity:1"
       d="m 105.26572,142.50303 -1.1965,3.56861 -14.405269,8.38224 -10.217689,7.04103 -7.956409,5.61612 -2.931307,-4.77791 -2.177533,-2.84992 -1.507535,-2.34699 c 0,0 -1.675029,-2.51471 -3.182554,-3.85581 -1.507536,-1.34117 -6.281372,-1.92791 -6.281372,-1.92791 0,0 -2.177544,0.1676 -4.355086,-1.84411 -2.177534,-2.01172 -2.847551,-4.8617 -2.847551,-4.8617 l 0.601133,-2.69987 c 0,0 0.02963,-0.20742 -0.08889,-0.62233 -0.118439,-0.41488 -0.799484,-1.03726 -0.799484,-1.03726 0,0 -1.954298,-1.42249 -2.102358,-2.4894 -0.148048,-1.06688 0.266498,-2.16338 0.266498,-2.16338 0,0 -0.598878,-0.29203 -1.310762,-0.79497 -0.711895,-0.50289 -0.62814,-2.30509 -0.62814,-2.30509 l -0.879387,-5.11317 -1.675037,-0.29338 -2.010032,-0.41908 c 0,0 -2.051919,-0.92203 -2.470678,-2.38895 -0.418759,-1.46686 0.544384,-2.97569 0.544384,-2.97569 l 1.63316,-2.09552 3.810692,-3.89772 1.716906,-2.05367 1.340034,-1.59263 0.753753,-0.75437 -0.41875,-2.68231 0.963143,-0.20957 -0.251257,-1.42496 -0.167502,-1.42498 0.335003,-1.46692 0.502516,-2.17933 0.502505,-2.598514 0.251258,-2.93379 0.460637,-2.47275 1.758783,-4.023428 1.836246,-3.071875 4.212044,-1.628751 4.403489,-1.820366 c 0,0 3.350482,-1.820362 5.169309,-0.191617 1.818836,1.628752 0.191457,3.736542 0.191457,3.736542 l -1.818827,2.874259 -2.20175,3.640727 -1.244465,3.928159 8.902714,7.185664 2.634927,8.90843 1.083044,7.45216 4.467532,-2.3034 2.166079,-1.62592 0.406142,-2.84536 3.926015,-2.03241 1.489178,-1.62594 0.406142,-2.57438 c 0,0 1.353803,-1.89692 4.7383,-2.1679 3.3845,-0.27099 7.40106,2.16801 7.11388,6.76683 -2.09554,6.67992 3.050491,5.44153 0.76581,12.1677 l -2.48892,6.32338 -0.95728,5.07785 2.77611,3.16169 4.116291,2.01199 2.29749,0.28742 z"
       inkscape:connector-curvature="0"
       sodipodi:nodetypes="ccccccccccsccccsccccccscccccccccccccccccccscccccccccccccscccccccc" />
  </g>
</svg>
