<?xml version="1.0" encoding="UTF-8" standalone="no"?>
<!-- Created with Inkscape (http://www.inkscape.org/) -->

<svg
   xmlns:dc="http://purl.org/dc/elements/1.1/"
   xmlns:cc="http://creativecommons.org/ns#"
   xmlns:rdf="http://www.w3.org/1999/02/22-rdf-syntax-ns#"
   xmlns:svg="http://www.w3.org/2000/svg"
   xmlns="http://www.w3.org/2000/svg"
   xmlns:sodipodi="http://sodipodi.sourceforge.net/DTD/sodipodi-0.dtd"
   xmlns:inkscape="http://www.inkscape.org/namespaces/inkscape"
   width="40mm"
   height="33.636551mm"
   viewBox="0 0 141.73228 119.18463"
   id="svg2"
   version="1.1"
   inkscape:version="0.91 r13725"
   sodipodi:docname="mapa-espana.svg">
  <defs
     id="defs4" />
  <sodipodi:namedview
     id="base"
     pagecolor="#ffffff"
     bordercolor="#666666"
     borderopacity="1.0"
     inkscape:pageopacity="0.0"
     inkscape:pageshadow="2"
     inkscape:zoom="0.49497475"
     inkscape:cx="185.65601"
     inkscape:cy="234.86131"
     inkscape:document-units="px"
     inkscape:current-layer="layer1"
     showgrid="false"
     fit-margin-top="0"
     fit-margin-left="0"
     fit-margin-right="0"
     fit-margin-bottom="0"
     inkscape:window-width="1215"
     inkscape:window-height="1000"
     inkscape:window-x="705"
     inkscape:window-y="24"
     inkscape:window-maximized="1" />
  <metadata
     id="metadata7">
    <rdf:RDF>
      <cc:Work
         rdf:about="">
        <dc:format>image/svg+xml</dc:format>
        <dc:type
           rdf:resource="http://purl.org/dc/dcmitype/StillImage" />
        <dc:title></dc:title>
      </cc:Work>
    </rdf:RDF>
  </metadata>
  <g
     inkscape:label="Layer 1"
     inkscape:groupmode="layer"
     id="layer1"
     transform="translate(-32.648966,-503.52135)">
    <path
       style="fill:#ffffff;stroke:#000000;stroke-width:0.99999994"
       d="m 71.2671,621.651 c -0.27647,-0.30517 -0.708734,-0.55486 -0.96059,-0.55486 -0.251856,0 -0.881876,-0.43695 -1.400043,-0.971 -0.708151,-0.72985 -1.173581,-0.971 -1.874117,-0.971 -0.780168,0 -0.978041,-0.13195 -1.214672,-0.81004 -0.155474,-0.44552 -0.461409,-0.87856 -0.679857,-0.96229 -0.218443,-0.0837 -0.397175,-0.35662 -0.397175,-0.60641 0,-0.24979 -0.312437,-0.82507 -0.694302,-1.27842 -0.39967,-0.47448 -0.694304,-1.17406 -0.694304,-1.64857 0,-0.55346 -0.248776,-1.03807 -0.757141,-1.47489 -0.638987,-0.54905 -0.762978,-0.88569 -0.794541,-2.1572 -0.02058,-0.82865 -0.212208,-1.87196 -0.425862,-2.31847 -0.446483,-0.93311 -2.63446,-2.50122 -5.230466,-3.74864 -1.822289,-0.87564 -2.031924,-0.89233 -4.641848,-0.36959 -0.790162,0.15826 -0.928283,0.0827 -1.354814,-0.74126 -0.261222,-0.50461 -0.523388,-1.67297 -0.582588,-2.59635 -0.0592,-0.92337 -0.24109,-2.01085 -0.404201,-2.41662 -0.216317,-0.53813 -0.207846,-0.90336 0.03131,-1.34975 0.18033,-0.33659 0.473889,-1.11578 0.652351,-1.73152 0.178462,-0.61574 0.572526,-1.25678 0.8757,-1.42454 0.73169,-0.40486 0.958433,-0.74271 0.963551,-1.43571 0.0054,-0.73436 1.111028,-1.78229 1.880383,-1.78229 0.324819,0 0.674549,-0.13572 0.777176,-0.3016 0.102628,-0.16588 0.422439,-0.23998 0.710695,-0.16469 0.406423,0.10618 0.524098,-0.013 0.524098,-0.53068 0,-0.40134 -0.162246,-0.6676 -0.406811,-0.6676 -0.223744,0 -0.553768,-0.2809 -0.733384,-0.62422 -0.179616,-0.34331 -0.671133,-0.93632 -1.092262,-1.31778 -0.42113,-0.38146 -0.993151,-1.09978 -1.27116,-1.59626 -0.446141,-0.79673 -0.461402,-1.00838 -0.130025,-1.80328 0.206495,-0.49533 0.452423,-1.52362 0.546506,-2.28508 0.146331,-1.18432 0.290266,-1.4414 0.995566,-1.77816 0.963798,-0.4602 1.791471,-1.37111 1.804611,-1.98612 0.0051,-0.23786 0.192725,-0.67481 0.416989,-0.971 0.558678,-0.73786 0.526136,-0.90179 -0.199459,-1.00473 -0.343681,-0.0488 -0.73932,-0.34886 -0.879199,-0.66688 -0.139878,-0.31803 -0.514802,-0.69256 -0.833164,-0.83229 -0.35371,-0.15524 -0.614687,-0.56806 -0.671009,-1.06141 -0.05069,-0.44405 -0.283916,-1.09969 -0.518275,-1.45699 -0.234359,-0.3573 -0.362269,-0.89349 -0.284244,-1.19154 0.0963,-0.36787 -0.176358,-0.86922 -0.849005,-1.56109 -0.797174,-0.81996 -0.995036,-1.24269 -1.012193,-2.16254 -0.01972,-1.05756 0.03076,-1.13824 0.672977,-1.0754 0.866759,0.0848 3.815766,0.15161 4.651833,0.10535 0.484306,-0.0268 0.624873,-0.20218 0.624873,-0.77962 0,-0.40978 0.260386,-1.02193 0.578634,-1.36033 0.318251,-0.3384 0.678016,-1.05545 0.799478,-1.59343 0.19465,-0.86213 0.126021,-1.0689 -0.578636,-1.74329 -1.292979,-1.23745 -1.006037,-3.15819 0.471811,-3.15819 0.892551,0 1.345465,-0.65225 0.922598,-1.32865 -0.204165,-0.32657 -0.248203,-0.74617 -0.111475,-1.0621 0.659527,-1.52392 0.509041,-5.80038 -0.256123,-7.27849 -0.590616,-1.14092 -0.424673,-1.63866 0.584999,-1.75468 0.519713,-0.0597 0.810209,-0.27345 0.875566,-0.64422 0.13637,-0.77362 1.992217,-2.63557 2.626941,-2.63557 0.748836,0 2.628887,-1.69402 3.266437,-2.94322 0.538805,-1.05572 0.538737,-1.06536 -0.01132,-1.61484 -0.433218,-0.43276 -0.626398,-0.47983 -0.889719,-0.21679 -0.521744,0.52119 -1.179033,0.40011 -1.881227,-0.34656 -0.529875,-0.56343 -0.61484,-0.8841 -0.486835,-1.83744 0.198556,-1.47878 0.01817,-1.91886 -0.786597,-1.91886 -0.356512,0 -0.729191,-0.1309 -0.828178,-0.2909 -0.122528,-0.19804 -0.308079,-0.1847 -0.5813,0.0418 -0.312805,0.25933 -0.546337,0.25519 -1.058776,-0.0188 -0.361595,-0.19332 -0.82599,-0.29143 -1.031987,-0.21802 -0.205995,0.0734 -0.593244,0.0211 -0.86055,-0.11624 -0.382662,-0.1966 -0.486013,-0.13396 -0.486013,0.29459 3e-6,0.8444 -1.470203,1.41724 -3.637295,1.41724 -1.571388,0 -1.950531,-0.0926 -2.275043,-0.55537 -0.339285,-0.48389 -0.502623,-0.51595 -1.26897,-0.24908 -0.483759,0.16846 -1.083533,0.22811 -1.33283,0.13254 -0.251378,-0.0964 -0.678685,0.03 -0.959348,0.28376 -0.587923,0.5315 -1.740227,0.5994 -2.299765,0.13552 -0.213612,-0.1771 -0.472292,-0.76878 -0.574845,-1.31486 -0.144227,-0.76799 -0.06604,-1.12707 0.345203,-1.58533 0.50341,-0.56098 0.506138,-0.61652 0.05133,-1.04522 -0.308947,-0.2912 -0.615897,-0.36696 -0.860267,-0.21232 -0.208963,0.13224 -0.754856,0.24419 -1.213096,0.24878 -0.951717,0.01 -1.469658,0.26361 -3.624973,1.77834 -1.41911,0.99732 -1.579306,1.04864 -1.990729,0.63764 -0.609856,-0.60921 -0.508867,-3.62346 0.154632,-4.61536 0.667519,-0.9979 0.567875,-2.91442 -0.193629,-3.72414 -0.326718,-0.34741 -0.594033,-0.76032 -0.594033,-0.91756 0,-0.15725 -0.262717,-0.52342 -0.583815,-0.8137 -0.470435,-0.42529 -0.558077,-0.7559 -0.451284,-1.70237 0.08965,-0.79454 0.009,-1.27701 -0.249349,-1.49118 -0.210034,-0.17413 -0.381881,-0.66415 -0.381881,-1.08894 0,-0.61027 -0.106057,-0.74464 -0.505413,-0.64031 -0.728657,0.19034 -1.263814,-0.58173 -1.039822,-1.50017 0.10255,-0.42049 0.185425,-1.01065 0.184168,-1.31147 -0.0013,-0.30082 0.199642,-0.76984 0.446443,-1.04227 0.246801,-0.27242 0.587696,-0.77535 0.757543,-1.11762 0.17345,-0.34953 0.616483,-0.65844 1.010727,-0.70475 0.386053,-0.0453 1.186951,-0.5135 1.779772,-1.04035 1.062221,-0.94402 2.160899,-1.23574 2.512663,-0.66718 0.203368,0.32871 2.606611,0.0726 3.032815,-0.32316 0.145109,-0.13475 0.520934,-0.245 0.835165,-0.245 0.506578,0 0.560083,-0.14128 0.47209,-1.24648 -0.0812,-1.0199 -0.0058,-1.27692 0.41458,-1.41396 1.141713,-0.37214 2.381702,-1.11243 2.630361,-1.57035 0.145,-0.26702 0.495817,-0.4855 0.779594,-0.4855 0.283778,0 0.587895,-0.18726 0.675815,-0.41614 0.173596,-0.4519 1.435547,-0.57385 1.68957,-0.16327 0.0913,0.14757 0.512266,0.11872 1.010857,-0.0693 0.729182,-0.27495 0.906479,-0.25102 1.209732,0.16326 0.19543,0.26699 0.69718,0.48543 1.115003,0.48543 0.851783,0 2.372887,0.96019 2.372887,1.49787 0,0.69198 1.316215,0.96835 5.415567,1.13712 6.802075,0.28003 8.495228,0.20317 9.361854,-0.42499 0.977119,-0.70825 1.377535,-0.68768 2.127001,0.10924 0.51096,0.54332 1.002462,0.68689 2.889766,0.84412 1.718494,0.14317 2.419681,0.32609 2.870019,0.74871 0.35749,0.33549 1.24859,0.65806 2.227063,0.80616 0.897117,0.1358 2.068535,0.36604 2.603149,0.51164 0.534614,0.14561 2.133884,0.33836 3.553934,0.42833 2.085021,0.13211 2.710678,0.0793 3.251014,-0.27436 0.368008,-0.24087 0.781258,-0.36871 0.91834,-0.28408 0.137081,0.0846 0.611232,0.0392 1.05367,-0.10106 0.442437,-0.14022 1.68796,-0.40175 2.767833,-0.58117 1.910357,-0.31741 1.994613,-0.30654 3.118844,0.40241 0.635497,0.40075 1.357355,0.72863 1.60413,0.72863 0.246777,0 0.806577,0.21119 1.244007,0.46932 0.74552,0.43992 0.82769,0.44006 1.31191,0.002 0.28411,-0.25685 1.18465,-0.59357 2.00119,-0.74826 1.21682,-0.23052 1.56796,-0.20591 1.94661,0.1364 0.2541,0.22972 0.82931,0.41767 1.27825,0.41767 0.44894,0 1.25144,0.28578 1.78333,0.63506 0.69027,0.4533 1.32475,0.62197 2.2168,0.58932 1.38683,-0.0508 3.07406,-0.62127 3.41589,-1.15502 0.35007,-0.54662 2.12669,-0.43988 2.30871,0.13871 0.4871,1.54831 0.67112,1.79514 1.08346,1.45329 0.56245,-0.4663 2.27847,-0.10643 2.6311,0.55177 0.1546,0.28857 0.28323,0.81378 0.28583,1.16713 0.004,0.50836 0.30808,0.77309 1.45804,1.26834 0.79931,0.34424 1.6567,0.62513 1.9053,0.62422 0.24861,-8.8e-4 0.61637,0.19615 0.81725,0.43795 0.279,0.33581 0.64822,0.39723 1.56354,0.26012 1.0038,-0.15037 1.2273,-0.0979 1.37697,0.3233 0.0983,0.27654 0.5107,0.81714 0.91651,1.20133 0.65799,0.62293 0.87137,0.6745 1.97161,0.47651 1.42651,-0.25671 3.12943,0.1588 4.0703,0.99314 0.55689,0.49383 0.73134,0.51256 1.85268,0.19893 0.68085,-0.19042 1.38453,-0.2557 1.56374,-0.14507 0.1792,0.11064 1.12638,0.24984 2.10485,0.30934 l 1.77902,0.10817 0,-0.9175 c 0,-1.05024 0.41578,-1.58333 1.23491,-1.58333 0.67114,0 4.90243,1.35398 5.26261,1.684 0.13684,0.12537 0.58663,0.16045 0.99954,0.078 0.62111,-0.12409 0.90184,0.0331 1.62583,0.91052 0.48129,0.58328 0.87508,1.27439 0.87508,1.53579 0,0.2614 0.1335,0.55769 0.29666,0.65842 0.16316,0.10073 0.23791,0.33606 0.16612,0.52295 -0.0811,0.21115 0.27906,0.13736 0.95129,-0.19488 0.96143,-0.47517 1.23852,-0.49713 2.48981,-0.19726 0.77439,0.18557 1.54685,0.55953 1.71657,0.83101 0.28081,0.44918 0.40732,0.45879 1.40594,0.10683 1.41375,-0.49828 1.9199,-0.48712 3.51108,0.0774 1.28024,0.45422 1.32131,0.45124 1.91189,-0.13872 0.33195,-0.3316 0.77181,-0.60291 0.97746,-0.60291 0.20565,0 0.77696,-0.20085 1.26958,-0.44634 1.332,-0.66379 4.32083,-0.31089 4.90459,0.57909 0.23145,0.35287 0.66495,0.70536 0.96333,0.7833 0.7755,0.20259 0.69965,1.44906 -0.13917,2.28699 -0.37493,0.37453 -0.82618,0.68096 -1.00279,0.68096 -0.17661,0 -0.0589,0.21848 0.26155,0.4855 0.4108,0.3423 0.63525,0.95013 0.76096,2.06074 0.16492,1.4571 0.12353,1.62594 -0.5519,2.25124 -0.4016,0.3718 -0.73019,0.81335 -0.73019,0.98122 0,0.16786 -0.26798,0.44848 -0.59552,0.62358 -0.32753,0.17511 -1.10862,0.78113 -1.73575,1.34673 -0.62714,0.56559 -1.82761,1.31356 -2.66772,1.66215 -0.8401,0.34858 -1.8399,0.91022 -2.22177,1.24807 -0.38186,0.33785 -1.03733,0.82673 -1.45659,1.0864 -0.41926,0.25967 -0.93996,0.89691 -1.15711,1.41609 -0.52252,1.24925 -1.12547,1.58722 -4.74591,2.66021 -1.68022,0.49797 -3.30145,1.0743 -3.60275,1.28073 -0.30129,0.20644 -0.84397,0.37534 -1.20594,0.37534 -0.36197,0 -0.97589,0.24968 -1.36427,0.55485 -0.38837,0.30518 -0.97833,0.55486 -1.31102,0.55486 -0.61294,0 -1.63178,0.93652 -2.43922,2.24215 -0.47423,0.76681 -0.38683,1.05359 0.46414,1.52296 0.2964,0.16348 0.58814,0.44477 0.64831,0.62508 0.14873,0.44573 -2.78519,3.31528 -3.59801,3.51907 -0.69745,0.17487 -1.8939,1.69298 -1.8939,2.40306 0,0.2361 -0.49233,0.988 -1.09407,1.67089 -0.60174,0.68289 -1.17947,1.58154 -1.28385,1.99699 -0.10439,0.41546 -0.47424,0.94155 -0.8219,1.16911 -0.34766,0.22755 -0.79397,0.81339 -0.99181,1.30186 -0.19785,0.48846 -0.77466,1.49773 -1.28182,2.24281 -0.50716,0.74509 -0.99959,1.68141 -1.09428,2.08072 -0.0947,0.3993 -0.33175,0.91327 -0.52678,1.14215 -0.19504,0.22888 -0.43979,0.99183 -0.5439,1.69545 -0.15577,1.05268 -0.0592,1.56349 0.5452,2.8834 0.40398,0.88225 0.67585,1.75676 0.60418,1.94336 -0.0717,0.18659 0.078,0.65103 0.33271,1.03209 1.75104,2.62007 1.80817,2.6716 3.16933,2.85861 1.49099,0.20484 1.48181,0.19678 1.72955,1.51863 0.15707,0.83805 0.0573,1.10592 -0.73852,1.98365 -0.50606,0.55811 -1.14542,1.05748 -1.42079,1.10971 -0.27538,0.0522 -0.47297,0.15738 -0.43909,0.23367 0.0339,0.0763 -0.081,0.40492 -0.25532,0.73027 -0.22084,0.4122 -0.69841,0.64871 -1.57517,0.78004 -1.71169,0.25642 -3.61733,2.20137 -3.61733,3.69197 0,0.81001 -0.15027,1.07191 -0.83317,1.45215 -0.64193,0.35743 -0.86853,0.71358 -0.98723,1.55167 -0.0848,0.59826 -0.32967,1.39986 -0.54428,1.78133 -0.21462,0.38146 -0.35777,0.85283 -0.31813,1.0475 0.0396,0.19466 -0.18258,0.7112 -0.49384,1.14786 -0.59329,0.83232 -0.48038,1.11066 0.60772,1.49815 0.26731,0.0952 0.48602,0.40733 0.48602,0.69364 0,1.02169 -2.3669,2.17678 -3.74993,1.83002 -0.43209,-0.10833 -1.02158,-0.0322 -1.42646,0.18428 -0.47582,0.25439 -0.8356,0.28443 -1.15892,0.0968 -0.74446,-0.43212 -1.65955,-0.14823 -2.62739,0.81508 -0.49303,0.49073 -1.2436,1.0424 -1.66794,1.22593 -0.42434,0.18353 -0.84987,0.55324 -0.94561,0.82159 -0.0957,0.26834 -0.46871,0.73758 -0.82881,1.04276 -0.42544,0.36053 -0.85471,1.28357 -1.22572,2.63556 -0.31403,1.1444 -0.81238,2.33845 -1.10744,2.65346 -0.29505,0.315 -0.53871,0.75195 -0.54147,0.971 -0.007,0.59431 -2.08092,2.20154 -2.84016,2.20154 -0.41214,0 -0.89253,-0.31315 -1.27674,-0.83228 -0.50684,-0.68482 -0.8139,-0.83229 -1.733,-0.83229 -0.98458,0 -1.15053,0.096 -1.39965,0.8099 -0.47359,1.3571 -2.87172,1.98772 -4.05321,1.06584 -0.57858,-0.45145 -4.65966,-0.26908 -5.765361,0.25764 -0.933088,0.44449 -1.043486,0.44492 -1.785608,0.007 -0.435064,-0.25673 -1.337572,-0.46932 -2.005575,-0.47242 -0.668,-0.003 -1.464494,-0.006 -1.769987,-0.007 -0.305494,-10e-4 -1.992651,0.0684 -3.749239,0.15426 -3.099592,0.15148 -3.212206,0.17942 -3.817936,0.94731 -0.343275,0.43517 -1.20591,1.17616 -1.916963,1.64665 -1.086164,0.71869 -1.465326,0.82788 -2.371913,0.68306 -0.827816,-0.13223 -1.496974,0.005 -2.873729,0.58956 -1.006104,0.42714 -1.794643,0.93488 -1.794643,1.15556 0,0.2165 -0.187461,0.46549 -0.416583,0.55332 -0.229119,0.0878 -0.416581,0.3204 -0.416581,0.51681 0,0.19642 -0.374924,0.75806 -0.833165,1.24809 -0.458241,0.49003 -0.833164,1.05903 -0.833164,1.26444 0,0.37059 -2.227506,2.0647 -2.71478,2.0647 -0.139738,0 -0.480269,-0.24968 -0.756737,-0.55485 z"
       id="path4599"
       inkscape:connector-curvature="0" />
  </g>
</svg>
