<?xml version="1.0" encoding="UTF-8" standalone="no"?>
<!-- Created with Inkscape (http://www.inkscape.org/) -->

<svg
   xmlns:dc="http://purl.org/dc/elements/1.1/"
   xmlns:cc="http://creativecommons.org/ns#"
   xmlns:rdf="http://www.w3.org/1999/02/22-rdf-syntax-ns#"
   xmlns:svg="http://www.w3.org/2000/svg"
   xmlns="http://www.w3.org/2000/svg"
   xmlns:sodipodi="http://sodipodi.sourceforge.net/DTD/sodipodi-0.dtd"
   xmlns:inkscape="http://www.inkscape.org/namespaces/inkscape"
   width="50mm"
   height="46.241901mm"
   viewBox="0 0 177.16535 163.84926"
   id="svg2"
   version="1.1"
   inkscape:version="0.91 r13725"
   sodipodi:docname="08-flor.svg">
  <defs
     id="defs4" />
  <sodipodi:namedview
     id="base"
     pagecolor="#ffffff"
     bordercolor="#666666"
     borderopacity="1.0"
     inkscape:pageopacity="0.0"
     inkscape:pageshadow="2"
     inkscape:zoom="0.7"
     inkscape:cx="134.76893"
     inkscape:cy="-289.67779"
     inkscape:document-units="px"
     inkscape:current-layer="layer1"
     showgrid="false"
     fit-margin-top="0"
     fit-margin-left="0"
     fit-margin-right="0"
     fit-margin-bottom="0"
     inkscape:window-width="1855"
     inkscape:window-height="1056"
     inkscape:window-x="65"
     inkscape:window-y="1048"
     inkscape:window-maximized="1" />
  <metadata
     id="metadata7">
    <rdf:RDF>
      <cc:Work
         rdf:about="">
        <dc:format>image/svg+xml</dc:format>
        <dc:type
           rdf:resource="http://purl.org/dc/dcmitype/StillImage" />
        <dc:title></dc:title>
      </cc:Work>
    </rdf:RDF>
  </metadata>
  <g
     inkscape:label="Layer 1"
     inkscape:groupmode="layer"
     id="layer1"
     transform="translate(-0.29012643,-2.3437106)">
    <path
       style="opacity:1;fill:none;fill-opacity:1;stroke:#000000;stroke-width:1;stroke-linecap:round;stroke-linejoin:round;stroke-miterlimit:4;stroke-dasharray:none;stroke-dashoffset:0;stroke-opacity:1"
       d="m 66.207189,60.930081 c 0,0 -27.19709,-55.2543498 6.0019,-58.0018198 33.198991,-2.74747003 16.29087,61.1447798 16.29087,61.1447798 0,0 18.382661,-55.1152898 48.015221,-31.42956 29.63256,23.68574 -28.00888,43.14421 -28.00888,43.14421 0,0 74.77212,6.86851 68.02156,30.858109 -6.75056,23.9896 -74.30926,-9.143139 -74.30926,-9.143139 0,0 64.82435,34.032019 48.58682,53.144519 -16.23752,19.11251 -65.735111,-42.85849 -65.735111,-42.85849 0,0 -1.60307,61.76051 -22.29278,57.7161 -20.68971,-4.0444 1.14322,-64.57346 1.14322,-64.57346 0,0 -48.87362,44.08845 -60.5906305,25.14365 -11.71702,-18.94479 51.4448705,-44.572819 51.4448705,-44.572819 0,0 -64.1776905,-24.8435 -52.5880905,-44.57283 11.5896005,-19.72934 64.0202905,24.00075 64.0202905,24.00075 z"
       id="path4136"
       inkscape:connector-curvature="0"
       sodipodi:nodetypes="czczczczczczczc" />
  </g>
</svg>
