<?xml version="1.0" encoding="UTF-8" standalone="no"?>
<svg
   xmlns:dc="http://purl.org/dc/elements/1.1/"
   xmlns:cc="http://creativecommons.org/ns#"
   xmlns:rdf="http://www.w3.org/1999/02/22-rdf-syntax-ns#"
   xmlns:svg="http://www.w3.org/2000/svg"
   xmlns="http://www.w3.org/2000/svg"
   xmlns:sodipodi="http://sodipodi.sourceforge.net/DTD/sodipodi-0.dtd"
   xmlns:inkscape="http://www.inkscape.org/namespaces/inkscape"
   version="1.1"
   id="svg2"
   viewBox="0 0 106.29922 93.874759"
   height="26.493544mm"
   width="30.000002mm"
   inkscape:version="0.91 r13725"
   sodipodi:docname="10-like.svg">
  <sodipodi:namedview
     pagecolor="#ffffff"
     bordercolor="#666666"
     borderopacity="1"
     objecttolerance="10"
     gridtolerance="10"
     guidetolerance="10"
     inkscape:pageopacity="0"
     inkscape:pageshadow="2"
     inkscape:window-width="1855"
     inkscape:window-height="1056"
     id="namedview8"
     showgrid="false"
     fit-margin-top="0"
     fit-margin-left="0"
     fit-margin-right="0"
     fit-margin-bottom="0"
     inkscape:zoom="0.62849694"
     inkscape:cx="-137.04976"
     inkscape:cy="8.0093873"
     inkscape:window-x="65"
     inkscape:window-y="1048"
     inkscape:window-maximized="1"
     inkscape:current-layer="svg2" />
  <defs
     id="defs4" />
  <metadata
     id="metadata7">
    <rdf:RDF>
      <cc:Work
         rdf:about="">
        <dc:format>image/svg+xml</dc:format>
        <dc:type
           rdf:resource="http://purl.org/dc/dcmitype/StillImage" />
        <dc:title></dc:title>
      </cc:Work>
    </rdf:RDF>
  </metadata>
  <path
     inkscape:connector-curvature="0"
     style="fill:#000000"
     d="M 3.61651,93.755175 C 2.18583,93.467095 1.19006,92.691805 0.51459,91.340065 L 0,90.310275 0,68.267615 c 0,-21.78329 0.004,-22.05357 0.34702,-22.97016 0.41464,-1.10821 1.30857,-2.07143 2.46067,-2.65139 l 0.84337,-0.42454 16.47767,0 c 15.7385,0 16.5093,0.0143 17.18275,0.31793 0.70079,0.316 0.70876,0.31567 1.30847,-0.055 1.14958,-0.71048 5.60061,-6.75011 8.10435,-10.99682 0.1537,-0.26072 0.6968,-1.16572 1.20689,-2.01112 0.51008,-0.8454 1.14266,-1.91524 1.40573,-2.37743 1.54222,-2.70954 2.75498,-4.93101 3.42541,-6.27447 l 0.76268,-1.52835 -0.1102,-7.04739 -0.1102,-7.0473801 0.50839,-1.0189 C 54.3647,3.0768949 54.7903,2.556705 55.70364,1.871705 57.37828,0.61574493 59.51236,-0.01728507 62.01241,3.5492656e-4 64.03139,0.01455493 65.48003,0.33296493 67.16577,1.132915 c 2.2674,1.07597 2.42588,1.31762 5.17429,7.8894499 1.49811,3.5822101 2.64546,7.9879301 2.83033,10.8682601 0.10278,1.60126 -0.17363,3.8427 -1.30292,10.56553 -0.37209,2.21518 -0.67654,4.18293 -0.67654,4.37278 0,0.34394 0.0455,0.34517 12.65849,0.34517 14.116903,0 14.34135,0.0154 16.32106,1.11559 2.46673,1.37089 4.11145,4.38272 4.12863,7.56035 0.0118,2.18916 -0.98689,4.99618 -2.37547,6.67656 l -0.65516,0.79283 0.42815,1.1375 c 1.15309,3.06347 0.43494,6.99787 -1.82597,10.00368 l -0.53421,0.71021 0.44768,1.58232 c 0.91874,3.24723 0.307,6.34002 -1.858047,9.39386 -0.68432,0.96525 -0.70974,1.04298 -0.4827,1.47625 0.662797,1.26481 0.719837,5.48702 0.0982,7.26931 -0.6401,1.83522 -0.770423,2.13037 -1.199713,2.71706 -2.09201,2.85905 -3.86154,3.94504 -7.88264,4.8377 -1.00081,0.22217 -4.23137,0.25679 -23.95685,0.25679 l -22.80004,0 -1.176,-0.4003 c -1.31508,-0.44764 -2.94012,-1.23456 -3.91337,-1.89502 -0.45246,-0.30706 -0.82122,-0.42287 -1.23353,-0.38741 l -0.58812,0.0506 -0.0503,1.06649 c -0.0755,1.59997 -0.3268,2.2963 -1.16541,3.22904 -1.42383,1.58363 -0.21168,1.47458 -16.72596,1.50481 -7.98563,0.0146 -14.84054,-0.0381 -15.23313,-0.11716 z m 27.71464,-25.72153 0,-21.39689 -13.41551,0 -13.4155,0 -0.0437,21.22707 c -0.024,11.67489 -0.007,21.32305 0.0375,21.44037 0.0644,0.16921 2.84665,0.20431 13.4592,0.16982 l 13.37798,-0.0435 0,-21.39688 z m 58.18442,18.0107 c 1.33882,-0.28378 2.5164,-0.85656 3.49248,-1.69878 0.82045,-0.70794 1.84207,-2.60447 2.01147,-3.73408 0.14551,-0.97031 -0.1532,-2.33183 -0.68247,-3.11071 -0.46679,-0.68694 -1.67208,-1.57066 -2.1422,-1.57066 -0.39709,0 -0.48147,-0.15838 -0.3766,-0.70694 0.0685,-0.35837 0.21143,-0.47379 0.70023,-0.56549 2.70425,-0.50733 5.34513,-3.96614 5.07345,-6.64483 -0.18192,-1.79374 -1.44012,-3.27046 -3.37389,-3.95985 -0.39613,-0.14123 -0.43845,-0.22338 -0.32864,-0.63798 0.10168,-0.38384 0.2925,-0.52988 0.98663,-0.75507 2.66805,-0.86558 4.602743,-3.23557 4.762643,-5.8342 0.0858,-1.39462 -0.13035,-2.01843 -1.083373,-3.12637 -0.42139,-0.4899 -1.0185,-0.91865 -1.72641,-1.23962 -0.80049,-0.36296 -1.05622,-0.55842 -0.98237,-0.75086 0.0549,-0.14308 0.0998,-0.35643 0.0998,-0.4741 0,-0.11768 0.46471,-0.35466 1.0327,-0.52663 2.956493,-0.89516 5.00185,-3.99214 4.67866,-7.08423 -0.17375,-1.66235 -0.92007,-2.72825 -2.484847,-3.54889 l -0.764173,-0.40078 -15.34457,-0.0468 -15.34457,-0.0468 0.11495,-0.80227 c 0.0632,-0.44124 0.26674,-1.52823 0.45224,-2.41552 0.32108,-1.53576 1.10941,-6.20306 2.10503,-12.46287 0.51496,-3.23771 0.49458,-3.99185 -0.18638,-6.89621 -0.77861,-3.32089 -1.77511,-6.02915 -3.97255,-10.7964501 -0.4708,-1.02139 -0.48767,-1.0361 -1.64103,-1.43182 -2.2706,-0.77903 -5.09774,-0.41662 -6.39819,0.82021 l -0.478,0.45461 0.12042,7.0475301 0.12041,7.04752 -0.87838,1.86075 c -1.9486,4.12785 -5.29474,9.77209 -9.61435,16.21742 -4.45035,6.6404 -4.67506,6.87576 -9.72199,10.18223 l -2.41989,1.58538 0,16.45072 0,16.45072 0.99191,0 c 1.32254,0 2.33073,0.32521 3.71142,1.1972 1.8149,1.14621 2.96386,1.74314 3.7875,1.96778 1.2026,0.328 44.15171,0.31556 45.7029,-0.0132 z"
     id="path4158" />
</svg>
